<?xml version="1.0" encoding="utf-8"?>
<!-- Generator: Adobe Illustrator 24.0.3, SVG Export Plug-In . SVG Version: 6.00 Build 0)  -->
<svg version="1.1" id="Layer_1" xmlns="http://www.w3.org/2000/svg" xmlns:xlink="http://www.w3.org/1999/xlink" x="0px" y="0px"
	 viewBox="0 0 175.9 32.3" style="enable-background:new 0 0 175.9 32.3;" xml:space="preserve">
<style type="text/css">
	.st0{fill:#003349;}
	.st1{fill:#93C90F;}
</style>
<g>
	<g>
		<polygon class="st0" points="22.5,27 5.4,27 5.4,21.5 18,21.5 13.5,16.2 5.4,16.2 5.4,10.7 9,10.7 4.5,5.4 0,5.4 0,16.2 0,21.5 
			0,32.3 26.9,32.3 		"/>
		<polygon class="st1" points="0,0 4.5,5.4 21.6,5.4 21.6,10.8 9,10.8 13.5,16.2 21.6,16.2 21.6,21.6 18,21.6 22.5,26.9 26.9,26.9 
			26.9,16.2 26.9,10.8 26.9,0 		"/>
	</g>
	<g>
		<path class="st0" d="M39.6,5.2h19V11l-1.4,0c-0.3-2-1.1-3-2.3-3.3H44.9v6.8h6.6c1.6,0,2.1-0.3,2.4-2.4h1.4L55,19.2h-1.3
			c0-2.4-1.7-2.5-3.5-2.5h-5.3v7.7h9.7c1.7-0.3,2.8-1.8,3.1-4.3l1.4,0.1l-0.3,6.7H39.6v-1.3c1.1-0.1,1.7-0.4,1.8-0.8V7.3
			c-0.2-0.4-0.9-0.6-1.8-0.8V5.2z"/>
		<path class="st0" d="M67.5,27.1v-1.3c1.1-0.1,1.7-0.4,1.8-0.8V7.3c-0.2-0.4-0.8-0.6-1.8-0.8V5.2h6.3c6.6,14.7,7.3,16.4,8,18.3
			c0.6-1.8,1.4-3.5,8-18.3h6.2v1.3c-1.1,0.2-1.7,0.5-1.9,0.9v17.6c0.2,0.4,0.8,0.8,1.9,0.9v1.3h-7v-1.2c1-0.1,1.6-0.4,1.8-0.9
			c0-11.4,0-13.7,0.1-15.9c-0.9,2-1.8,4.1-8,18h-3c-6.2-13.7-7.2-15.9-8-18C72,11.4,72,13.8,72,24.9c0.2,0.4,0.8,0.8,1.9,0.9v1.3
			H67.5z"/>
		<path class="st0" d="M103.8,27.1v-1.2c1-0.1,1.6-0.4,1.8-0.9V7.3c-0.2-0.4-0.8-0.7-1.8-0.8V5.2h7.4v1.3c-1.1,0.2-2,0.4-2.1,0.8
			v17.2h9.4c1.6-0.3,2.8-1.3,3.1-4.3l1.4,0.1l-0.4,6.7H103.8z"/>
		<path class="st0" d="M130.1,5.2h19V11l-1.4,0c-0.3-2-1.1-3-2.3-3.3h-10.1v6.8h6.6c1.6,0,2.1-0.3,2.4-2.4h1.4l-0.3,7.2h-1.3
			c0-2.4-1.7-2.5-3.5-2.5h-5.3v7.7h9.7c1.7-0.3,2.8-1.8,3.1-4.3l1.4,0.1l-0.3,6.7h-19.2v-1.3c1.1-0.1,1.7-0.4,1.8-0.8V7.3
			c-0.2-0.4-0.9-0.6-1.8-0.8V5.2z"/>
		<path class="st0" d="M159,19.6l1.2,0.4c0,3.2,2.3,5.1,6.7,5.1c3.4,0,5.9-1.1,5.9-3.6c0-1.3-0.7-2-1.8-2.6
			c-2.3-1.1-6.1-1.4-9.1-2.6c-2.5-1-4.3-2.5-4.3-5.3c0-3.9,3.5-6.2,8.3-6.2c3.8,0,5.5,1.5,7.1,1.5c0.4,0,0.7-0.1,1.4-0.8l1,0.3
			l-1.4,6.5c-0.4,0-0.9,0-1.3-0.1c-0.2-3.3-2.8-4.9-6.6-4.9c-3.5,0-5.4,1.4-5.4,3.3c0,1.4,1,2.1,2.6,2.7c2.5,0.9,6,1.3,8.8,2.6
			c2.1,1,3.7,2.4,3.7,5.2c0,4.7-4.5,6.4-8.9,6.4c-3,0-4.9-0.8-7.6-2.3c-0.3,0-0.7,0.2-1.2,1.1l-1.2-0.4L159,19.6z"/>
	</g>
</g>
</svg>
