<?xml version="1.0" encoding="utf-8"?>
<!-- Generator: Adobe Illustrator 24.0.3, SVG Export Plug-In . SVG Version: 6.00 Build 0)  -->
<svg version="1.1" id="Layer_1" xmlns="http://www.w3.org/2000/svg" xmlns:xlink="http://www.w3.org/1999/xlink" x="0px" y="0px"
	 viewBox="0 0 193.7 35.6" style="enable-background:new 0 0 193.7 35.6;" xml:space="preserve">
<style type="text/css">
	.st0{fill:#FFFFFF;}
</style>
<g>
	<g>
		<polygon class="st0" points="24.7,29.7 5.9,29.7 5.9,23.7 19.8,23.7 14.8,17.8 5.9,17.8 5.9,11.8 9.9,11.8 4.9,5.9 0,5.9 0,17.8 
			0,23.7 0,35.6 29.7,35.6 		"/>
		<polygon class="st0" points="0,0 4.9,5.9 23.8,5.9 23.8,11.9 9.9,11.9 14.8,17.8 23.8,17.8 23.8,23.8 19.8,23.8 24.7,29.7 
			29.7,29.7 29.7,17.8 29.7,11.9 29.7,0 		"/>
	</g>
	<g>
		<path class="st0" d="M43.6,5.7h20.9v6.4l-1.5,0c-0.3-2.1-1.2-3.3-2.5-3.7H49.4v7.5h7.3c1.8,0,2.3-0.4,2.7-2.7h1.5l-0.3,7.9h-1.4
			c0-2.7-1.8-2.7-3.9-2.7h-5.8V27h10.7c1.9-0.3,3.1-1.9,3.5-4.7l1.5,0.1l-0.4,7.4H43.6v-1.4c1.2-0.1,1.9-0.4,2-0.9V8
			c-0.2-0.4-1-0.7-2-0.8V5.7z"/>
		<path class="st0" d="M74.3,29.8v-1.4c1.2-0.1,1.9-0.4,2-0.9V8c-0.2-0.4-0.9-0.7-2-0.8V5.7h6.9c7.2,16.1,8.1,18.1,8.9,20.2
			C90.8,24,91.7,22,99,5.7h6.8v1.4c-1.2,0.2-1.9,0.5-2.1,1v19.3c0.2,0.4,0.9,0.8,2.1,1v1.4H98v-1.4c1.1-0.1,1.8-0.5,2-1
			c0-12.5,0-15,0.1-17.5c-1,2.2-2,4.6-8.8,19.9h-3.3c-6.8-15-7.9-17.5-8.9-19.9c0.1,2.6,0.1,5.3,0.1,17.5c0.2,0.4,0.9,0.8,2.1,1v1.4
			H74.3z"/>
		<path class="st0" d="M114.3,29.8v-1.4c1.1-0.1,1.8-0.5,2-1V8.1c-0.2-0.5-0.9-0.8-2-0.9V5.7h8.2v1.4c-1.2,0.2-2.2,0.4-2.4,0.8v19
			h10.3c1.8-0.3,3.1-1.4,3.4-4.7l1.6,0.1l-0.4,7.4H114.3z"/>
		<path class="st0" d="M143.3,5.7h20.9v6.4l-1.5,0c-0.3-2.1-1.2-3.3-2.5-3.7h-11.1v7.5h7.3c1.8,0,2.3-0.4,2.7-2.7h1.5l-0.3,7.9h-1.4
			c0-2.7-1.8-2.7-3.9-2.7h-5.8V27h10.7c1.9-0.3,3.1-1.9,3.5-4.7l1.5,0.1l-0.4,7.4h-21.1v-1.4c1.2-0.1,1.9-0.4,2-0.9V8
			c-0.2-0.4-1-0.7-2-0.8V5.7z"/>
		<path class="st0" d="M175.1,21.6l1.3,0.4c0,3.5,2.5,5.6,7.4,5.6c3.7,0,6.5-1.2,6.5-3.9c0-1.4-0.8-2.2-2-2.8
			c-2.5-1.2-6.8-1.6-10-2.9c-2.7-1.1-4.7-2.8-4.7-5.9c0-4.3,3.9-6.8,9.1-6.8c4.2,0,6.1,1.6,7.8,1.6c0.4,0,0.7-0.1,1.5-0.9l1.1,0.4
			l-1.6,7.2c-0.4,0-1,0-1.4-0.1C190,9.7,187,8,182.9,8c-3.9,0-5.9,1.6-5.9,3.6c0,1.5,1.1,2.4,2.9,3c2.7,1,6.6,1.4,9.7,2.9
			c2.3,1.1,4,2.6,4,5.7c0,5.1-4.9,7.1-9.8,7.1c-3.3,0-5.4-0.9-8.4-2.5c-0.3,0-0.7,0.3-1.3,1.2l-1.4-0.5L175.1,21.6z"/>
	</g>
</g>
</svg>
